**ABCDEFGHIJKLMNOPQRSTUVWXYZabcdefghijklmnopqrstuvwxyz**************************
**PARASOLID !"#$%&'()*+,-./:;<=>?@[\]^_`{|}~0123456789**************************
**PART1;
MC=AMD64;
MC_MODEL=Intel64 Family 6 Model 165 Stepping 5, GenuineIntel;
MC_ID=unknown;
OS=Windows_NT;
OS_RELEASE=unknown;
FRU=Parasolid Version 25.1, build 239,  8-18-2014;
APPL=SolidWorks 2014-2014292;
SITE=;
USER=unknown;
FORMAT=text;
GUISE=transmit;
KEY=7984-8-_5-12-mattssons;
FILE=7984-8-_5-12-mattssons.x_t;
DATE=Tue May 03 16:45:44 2022;
**PART2;
SCH=SCH_2501239_25001;
USFLD_SIZE=0;
**PART3;
**END_OF_HEADER*****************************************************************
T51 : TRANSMIT FILE created by modeller version 250123923 SCH_2501239_25001_1300
6189 0 12 29 CCCCCCCCCCCCCDI5 owner1040 0 CCCCCCCCCA16 index_map_offset0 0 1 dA9
 index_map82 0 A17 node_id_index_map82 0 A20 schema_embedding_map82 0 A5 child12
 0 A14 lowest_node_id0 0 1 dZ1 1773 0 2 0 0 0 0 1e3 1e-8 0 3 0 1 0 1 1 4 5 6 7 8
 9 10 0 0 0 0 0 0 70 11 CI9 list_type0 0 1 uI10 notransmit0 0 1 lCCCDCCDI12 fing
er_index0 0 1 dI12 finger_block1012 0 CZ2 0 4 T1 0 0 2 20 1 11 11 13 255 4 29 0
 1 0 12 0 0 13 0 51 255 5 58 0 14 15 0 0 -0 0 -433680868994202e-33 0 0 1 .0025 1
 0 0 31 255 6 885 0 16 17 0 0 +0 0 -.0002464101615137725 0 870706109730183e-32 1
 0 -1 870706109730183e-32 .00224641016151377 29 255 7 1161 0 10 18 0 -.001863879
044322785 .000742318505976333 -.0153 19 8 CCCCCCCA5 owner12 0 Z8 33 0 1 13 0 19
 V0 16 255 9 103 0 ?20 0 21 17 0 0 1 18 255 10 1159 0 22 0 23 7 ?1 17 255 22 0 2
4 25 26 10 27 28 0 29 -18 23 1295 0 25 10 30 18 ?1 17 25 0 24 31 22 23 29 32 0 3
3 -18 30 1294 0 34 23 35 36 ?1 29 18 1404 0 23 37 7 -.001863879044322785 .000742
318505976333 -.0138 29 37 1405 0 38 39 18 -.001863879044322785 -.000742318505976
333 -.0153 18 38 1274 0 26 40 41 37 ?1 29 39 1406 0 42 43 37 -.00157480620603620
5 -.001243007348976826 -.0153 18 42 1276 0 44 45 40 39 ?1 29 43 1407 0 46 47 39
 -.0002890728382865775 -.00198532585495316 -.0153 18 46 1278 0 48 49 45 43 ?1 29
 47 1408 0 50 51 43 .0002890728382865775 -.00198532585495316 -.0153 18 50 1280 0
 52 53 49 47 ?1 29 51 1409 0 54 55 47 .00157480620603621 -.001243007348976826 -.
0153 18 54 1282 0 56 57 53 51 ?1 29 55 1410 0 58 59 51 .001863879044322785 -.000
742318505976332 -.0153 18 58 1284 0 60 61 57 55 ?1 29 59 1411 0 62 63 55 .001863
879044322785 .000742318505976333 -.0153 18 62 1286 0 64 65 61 59 ?1 29 63 1412 0
 66 67 59 .00157480620603621 .001243007348976826 -.0153 18 66 1288 0 68 69 65 63
 ?1 29 67 1413 0 70 71 63 .0002890728382865775 .00198532585495316 -.0153 18 70 1
290 0 72 73 69 67 ?1 29 71 1414 0 74 36 67 -.000289072838286578 .001985325854953
16 -.0153 18 74 1292 0 75 35 73 71 ?1 29 36 1415 0 30 76 71 -.001574806206036205
 .001243007348976826 -.0153 29 76 1417 0 73 77 36 -.000289072838286578 .00198532
585495316 -.0138 18 73 1291 0 78 74 70 76 ?1 29 77 1418 0 69 79 76 .000289072838
2865775 .00198532585495316 -.0138 18 69 1289 0 80 70 66 77 ?1 29 79 1419 0 65 81
 77 .00157480620603621 .001243007348976826 -.0138 18 65 1287 0 82 66 62 79 ?1 29
 81 1420 0 61 83 79 .001863879044322785 .000742318505976333 -.0138 18 61 1285 0
 84 62 58 81 ?1 29 83 1421 0 57 85 81 .001863879044322785 -.000742318505976332 -
.0138 18 57 1283 0 86 58 54 83 ?1 29 85 1422 0 53 87 83 .00157480620603621 -.001
243007348976826 -.0138 18 53 1281 0 88 54 50 85 ?1 29 87 1423 0 49 89 85 .000289
0728382865775 -.00198532585495316 -.0138 18 49 1279 0 90 50 46 87 ?1 29 89 1424
 0 45 91 87 -.0002890728382865775 -.00198532585495316 -.0138 18 45 1277 0 92 46
 42 89 ?1 29 91 1425 0 40 93 89 -.001574806206036205 -.001243007348976826 -.0138
 18 40 1275 0 94 42 38 91 ?1 29 93 1426 0 41 95 91 -.001863879044322785 -.000742
318505976333 -.0138 18 41 1273 0 96 38 0 93 ?1 29 95 1427 0 35 0 93 -.0015748062
06036205 .001243007348976826 -.0138 18 35 1293 0 97 30 74 95 ?1 17 97 0 98 99 10
0 35 34 101 0 102 -15 255 98 1343 0 99 103 0 17 99 0 98 29 97 23 102 104 0 0 +17
 100 0 98 97 29 30 105 106 0 107 -17 34 0 108 109 110 30 97 101 0 100 +16 101 12
56 0 ?34 106 111 112 0 0 1 17 102 0 113 78 33 35 99 104 0 110 -15 113 1351 0 102
 114 0 17 78 0 113 80 102 73 110 115 0 116 -17 33 0 113 102 96 23 31 117 0 99 -1
6 104 1260 0 ?99 117 106 118 0 0 1 17 110 0 108 34 116 35 78 115 0 0 +15 108 133
9 0 110 119 0 17 116 0 108 110 109 73 75 120 0 121 -16 115 1271 0 ?110 122 123 1
24 0 0 1 16 122 1125 0 ?125 126 115 127 0 0 1 16 123 1270 0 ?121 115 128 129 0 0
 1 31 124 1391 0 115 130 129 0 --.00127883084625502 .002215 -.0138 0 0 1 1 0 0 .
001016056655526972 31 130 1392 0 28 131 124 0 +-.00255766169251004 4336808689942
02e-33 -.0153 0 0 -1 1 0 0 .001016056655526972 31 129 1390 0 123 124 132 0 +0 .0
0191824626938253 -.0138 0 0 1 1 0 0 .000296753730617469 31 132 1389 0 128 129 13
3 0 -.00127883084625502 .002215 -.0138 0 0 1 1 0 0 .001016056655526972 16 128 12
69 0 ?134 123 135 132 0 0 1 31 133 1388 0 135 132 136 0 +.00166125 .000959123134
691266 -.0138 0 0 1 1 0 0 .0002967537306174685 16 135 1268 0 ?137 128 138 133 0
 0 1 31 136 1387 0 138 133 139 0 -.00255766169251004 1038541316390282e-34 -.0138
 0 0 1 1 0 0 .001016056655526972 16 138 1267 0 ?140 135 141 136 0 0 1 31 139 138
6 0 141 136 142 0 +.00166125 -.000959123134691266 -.0138 0 0 1 1 0 0 .0002967537
306174685 16 141 1266 0 ?143 138 144 139 0 0 1 31 142 1385 0 144 139 145 0 -.001
27883084625502 -.002215 -.0138 0 0 1 1 0 0 .001016056655526972 16 144 1265 0 ?14
6 141 147 142 0 0 1 31 145 1384 0 147 142 148 0 +1945823214396045e-34 -.00191824
626938253 -.0138 0 0 1 1 0 0 .0002967537306174685 16 147 1264 0 ?149 144 150 145
 0 0 1 31 148 1383 0 150 145 151 0 --.00127883084625502 -.002215 -.0138 0 0 1 1
 0 0 .001016056655526972 16 150 1263 0 ?152 147 153 148 0 0 1 31 151 1382 0 153
 148 154 0 +-.00166125 -.000959123134691266 -.0138 0 0 1 1 0 0 .0002967537306174
685 16 153 1262 0 ?155 150 117 151 0 0 1 31 154 1381 0 117 151 118 0 --.00255766
169251004 433680868994202e-33 -.0138 0 0 1 1 0 0 .001016056655526972 16 117 1261
 0 ?31 153 104 154 0 0 1 31 118 1380 0 104 154 156 0 +-.00166125 .00095912313469
1266 -.0138 0 0 1 1 0 0 .000296753730617468 30 255 156 1379 0 157 118 158 0 +-.0
01863879044322785 -.000742318505976333 -.00788730057956202 0 0 -1 16 157 1216 0
 ?26 159 28 156 0 0 1 30 158 1378 0 160 156 161 0 +-.001574806206036205 -.001243
007348976826 -.00788730057956202 0 0 -1 16 160 1220 0 ?44 162 159 158 0 0 1 30 1
61 1377 0 163 158 164 0 +-.0002890728382865775 -.00198532585495316 -.00788730057
956202 0 0 -1 16 163 1224 0 ?48 165 162 161 0 0 1 30 164 1376 0 166 161 167 0 +.
0002890728382865775 -.00198532585495316 -.00788730057956202 0 0 -1 16 166 1228 0
 ?52 168 165 164 0 0 1 30 167 1375 0 169 164 170 0 +.00157480620603621 -.0012430
07348976826 -.00788730057956202 0 0 -1 16 169 1232 0 ?56 171 168 167 0 0 1 30 17
0 1374 0 172 167 173 0 +.001863879044322785 -.000742318505976332 -.0078873005795
6202 0 0 -1 16 172 1236 0 ?60 174 171 170 0 0 1 30 173 1373 0 175 170 176 0 +.00
1863879044322785 .000742318505976333 -.00788730057956202 0 0 -1 16 175 1240 0 ?6
4 177 174 173 0 0 1 30 176 1372 0 178 173 179 0 +.00157480620603621 .00124300734
8976826 -.00788730057956202 0 0 -1 16 178 1244 0 ?68 180 177 176 0 0 1 30 179 13
71 0 181 176 182 0 +.0002890728382865775 .00198532585495316 -.00788730057956202
 0 0 -1 16 181 1248 0 ?72 183 180 179 0 0 1 30 182 1370 0 120 179 112 0 +-.00028
9072838286578 .00198532585495316 -.00788730057956202 0 0 -1 16 120 1252 0 ?75 11
1 183 182 0 0 1 30 112 1369 0 101 182 184 0 +-.001574806206036205 .0012430073489
76826 -.00788730057956202 0 0 -1 30 184 1368 0 32 112 127 0 +-.00186387904432278
5 .000742318505976333 -.00788730057956202 0 0 -1 16 32 1212 0 ?29 28 0 184 0 0 1
 31 127 1147 0 122 184 185 0 +0 3544761686257125e-34 -.01497 0 851179555526357e-
32 -1 0 1 851179555526357e-32 .00425 31 185 1146 0 126 127 186 0 +0 357285061158
9495e-34 -.0153 0 851179555526357e-32 -1 0 1 851179555526357e-32 .0034 16 126 11
27 0 ?187 188 122 185 0 0 1 31 186 1100 0 188 185 189 0 +0 32919613582658e-32 -.
012 0 851179555526357e-32 -1 0 1 851179555526357e-32 .00425 16 188 1077 0 ?190 1
91 126 186 0 0 1 31 189 1098 0 191 186 192 0 +0 -299248967414002e-34 -.012 0 851
179555526357e-32 -1 0 1 851179555526357e-32 .0025 16 191 1076 0 ?193 194 188 189
 0 0 1 31 192 930 0 194 189 195 0 +0 -1007842322012686e-34 -.000374999999999995
 0 870706109730183e-32 1 0 -1 870706109730183e-32 .002023686027918555 16 194 895
 0 ?196 197 191 192 0 0 1 31 195 929 0 197 192 198 0 +0 -102090291365864e-33 -52
5e-6 0 870706109730183e-32 1 0 -1 870706109730183e-32 .002023686027918555 16 197
 894 0 ?199 200 194 195 0 0 1 31 198 928 0 200 195 201 0 +0 -104484733167622e-33
 -8e-4 0 870706109730183e-32 1 0 -1 870706109730183e-32 .0025 16 200 891 0 ?202
 16 197 198 0 0 1 31 201 866 0 203 198 204 0 +0 -1007842322012686e-34 -.001175 0
 870706109730183e-32 1 0 -1 870706109730183e-32 .002023686027918555 16 203 840 0
 ?205 206 16 201 0 0 1 31 204 865 0 206 201 207 0 +0 -102090291365864e-33 -.0013
25 0 870706109730183e-32 1 0 -1 870706109730183e-32 .002023686027918555 16 206 8
39 0 ?208 209 203 204 0 0 1 31 207 864 0 209 204 210 0 +0 -104484733167622e-33 -
.0016 0 870706109730183e-32 1 0 -1 870706109730183e-32 .0025 16 209 838 0 ?211 2
12 206 207 0 0 1 31 210 863 0 212 207 213 0 +0 -983897903995106e-34 -9e-4 0 8707
06109730183e-32 1 0 -1 870706109730183e-32 .0025 16 212 837 0 ?214 215 209 210 0
 0 1 31 213 813 0 215 210 216 0 +0 -1007842322012686e-34 -.001975 0 870706109730
183e-32 1 0 -1 870706109730183e-32 .002023686027918555 16 215 787 0 ?217 218 212
 213 0 0 1 31 216 812 0 218 213 219 0 +0 -102090291365864e-33 -.002125 0 8707061
09730183e-32 1 0 -1 870706109730183e-32 .002023686027918555 16 218 786 0 ?220 22
1 215 216 0 0 1 31 219 811 0 221 216 222 0 +0 -104484733167622e-33 -.0024 0 8707
06109730183e-32 1 0 -1 870706109730183e-32 .0025 16 221 785 0 ?223 224 218 219 0
 0 1 31 222 810 0 224 219 225 0 +0 -983897903995106e-34 -.0017 0 870706109730183
e-32 1 0 -1 870706109730183e-32 .0025 16 224 784 0 ?226 227 221 222 0 0 1 31 225
 760 0 227 222 228 0 +0 -1007842322012686e-34 -.002775 0 870706109730183e-32 1 0
 -1 870706109730183e-32 .002023686027918555 16 227 734 0 ?229 230 224 225 0 0 1
 31 228 759 0 230 225 231 0 +0 -102090291365864e-33 -.002925 0 870706109730183e-
32 1 0 -1 870706109730183e-32 .002023686027918555 16 230 733 0 ?232 233 227 228
 0 0 1 31 231 758 0 233 228 234 0 +0 -104484733167622e-33 -.0032 0 8707061097301
83e-32 1 0 -1 870706109730183e-32 .0025 16 233 732 0 ?235 236 230 231 0 0 1 31 2
34 757 0 236 231 237 0 +0 -983897903995106e-34 -.0025 0 870706109730183e-32 1 0
 -1 870706109730183e-32 .0025 16 236 731 0 ?238 239 233 234 0 0 1 31 237 707 0 2
39 234 240 0 +0 -1007842322012686e-34 -.003575 0 870706109730183e-32 1 0 -1 8707
06109730183e-32 .002023686027918555 16 239 681 0 ?241 242 236 237 0 0 1 31 240 7
06 0 242 237 243 0 +0 -102090291365864e-33 -.003725 0 870706109730183e-32 1 0 -1
 870706109730183e-32 .002023686027918555 16 242 680 0 ?244 245 239 240 0 0 1 31
 243 705 0 245 240 246 0 +0 -104484733167622e-33 -.004 0 870706109730183e-32 1 0
 -1 870706109730183e-32 .0025 16 245 679 0 ?247 248 242 243 0 0 1 31 246 704 0 2
48 243 249 0 +0 -983897903995106e-34 -.0033 0 870706109730183e-32 1 0 -1 8707061
09730183e-32 .0025 16 248 678 0 ?250 251 245 246 0 0 1 31 249 654 0 251 246 252
 0 +0 -1007842322012686e-34 -.004375 0 870706109730183e-32 1 0 -1 87070610973018
3e-32 .002023686027918555 16 251 628 0 ?253 254 248 249 0 0 1 31 252 653 0 254 2
49 255 0 +0 -102090291365864e-33 -.004525 0 870706109730183e-32 1 0 -1 870706109
730183e-32 .002023686027918555 16 254 627 0 ?256 257 251 252 0 0 1 31 255 652 0
 257 252 258 0 +0 -104484733167622e-33 -.0048 0 870706109730183e-32 1 0 -1 87070
6109730183e-32 .0025 16 257 626 0 ?259 260 254 255 0 0 1 31 258 651 0 260 255 26
1 0 +0 -983897903995106e-34 -.0041 0 870706109730183e-32 1 0 -1 870706109730183e
-32 .0025 16 260 625 0 ?262 263 257 258 0 0 1 31 261 601 0 263 258 264 0 +0 -100
7842322012686e-34 -.005175 0 870706109730183e-32 1 0 -1 870706109730183e-32 .002
023686027918555 16 263 575 0 ?265 266 260 261 0 0 1 31 264 600 0 266 261 267 0 +
0 -102090291365864e-33 -.005325 0 870706109730183e-32 1 0 -1 870706109730183e-32
 .002023686027918555 16 266 574 0 ?268 269 263 264 0 0 1 31 267 599 0 269 264 27
0 0 +0 -104484733167622e-33 -.0056 0 870706109730183e-32 1 0 -1 870706109730183e
-32 .0025 16 269 573 0 ?271 272 266 267 0 0 1 31 270 598 0 272 267 273 0 +0 -983
897903995106e-34 -.0049 0 870706109730183e-32 1 0 -1 870706109730183e-32 .0025 1
6 272 572 0 ?274 275 269 270 0 0 1 31 273 548 0 275 270 276 0 +0 -10078423220126
86e-34 -.005975 0 870706109730183e-32 1 0 -1 870706109730183e-32 .00202368602791
8555 16 275 522 0 ?277 278 272 273 0 0 1 31 276 547 0 278 273 279 0 +0 -10209029
1365864e-33 -.006125 0 870706109730183e-32 1 0 -1 870706109730183e-32 .002023686
027918555 16 278 521 0 ?280 281 275 276 0 0 1 31 279 546 0 281 276 282 0 +0 -104
484733167622e-33 -.0064 0 870706109730183e-32 1 0 -1 870706109730183e-32 .0025 1
6 281 520 0 ?283 284 278 279 0 0 1 31 282 545 0 284 279 285 0 +0 -98389790399510
6e-34 -.0057 0 870706109730183e-32 1 0 -1 870706109730183e-32 .0025 16 284 519 0
 ?286 287 281 282 0 0 1 31 285 495 0 287 282 288 0 +0 -1007842322012686e-34 -.00
6775 0 870706109730183e-32 1 0 -1 870706109730183e-32 .002023686027918555 16 287
 469 0 ?289 290 284 285 0 0 1 31 288 494 0 290 285 291 0 +0 -102090291365864e-33
 -.006925 0 870706109730183e-32 1 0 -1 870706109730183e-32 .002023686027918555 1
6 290 468 0 ?292 293 287 288 0 0 1 31 291 493 0 293 288 294 0 +0 -10448473316762
2e-33 -.0072 0 870706109730183e-32 1 0 -1 870706109730183e-32 .0025 16 293 467 0
 ?295 296 290 291 0 0 1 31 294 492 0 296 291 297 0 +0 -983897903995106e-34 -.006
5 0 870706109730183e-32 1 0 -1 870706109730183e-32 .0025 16 296 466 0 ?298 299 2
93 294 0 0 1 31 297 442 0 299 294 300 0 +0 -1007842322012686e-34 -.007575 0 8707
06109730183e-32 1 0 -1 870706109730183e-32 .002023686027918555 16 299 416 0 ?301
 302 296 297 0 0 1 31 300 441 0 302 297 303 0 +0 -102090291365864e-33 -.007725 0
 870706109730183e-32 1 0 -1 870706109730183e-32 .002023686027918555 16 302 415 0
 ?304 305 299 300 0 0 1 31 303 440 0 305 300 306 0 +0 -104484733167622e-33 -.008
 0 870706109730183e-32 1 0 -1 870706109730183e-32 .0025 16 305 414 0 ?307 308 30
2 303 0 0 1 31 306 439 0 308 303 309 0 +0 -983897903995106e-34 -.0073 0 87070610
9730183e-32 1 0 -1 870706109730183e-32 .0025 16 308 413 0 ?310 311 305 306 0 0 1
 31 309 389 0 311 306 312 0 +0 -1007842322012686e-34 -.008375 0 870706109730183e
-32 1 0 -1 870706109730183e-32 .002023686027918555 16 311 363 0 ?313 314 308 309
 0 0 1 31 312 388 0 314 309 315 0 +0 -102090291365864e-33 -.008525 0 87070610973
0183e-32 1 0 -1 870706109730183e-32 .002023686027918555 16 314 362 0 ?316 317 31
1 312 0 0 1 31 315 387 0 317 312 318 0 +0 -104484733167622e-33 -.0088 0 87070610
9730183e-32 1 0 -1 870706109730183e-32 .0025 16 317 361 0 ?319 320 314 315 0 0 1
 31 318 386 0 320 315 321 0 +0 -983897903995106e-34 -.0081 0 870706109730183e-32
 1 0 -1 870706109730183e-32 .0025 16 320 360 0 ?322 323 317 318 0 0 1 31 321 336
 0 323 318 324 0 +0 -1007842322012686e-34 -.009175 0 870706109730183e-32 1 0 -1
 870706109730183e-32 .002023686027918555 16 323 310 0 ?325 326 320 321 0 0 1 31
 324 335 0 326 321 327 0 +0 -102090291365864e-33 -.009325 0 870706109730183e-32
 1 0 -1 870706109730183e-32 .002023686027918555 16 326 309 0 ?328 329 323 324 0
 0 1 31 327 334 0 329 324 330 0 +0 -104484733167622e-33 -.0096 0 870706109730183
e-32 1 0 -1 870706109730183e-32 .0025 16 329 308 0 ?331 332 326 327 0 0 1 31 330
 333 0 332 327 333 0 +0 -983897903995106e-34 -.0089 0 870706109730183e-32 1 0 -1
 870706109730183e-32 .0025 16 332 307 0 ?334 335 329 330 0 0 1 31 333 283 0 335
 330 336 0 +0 -1007842322012686e-34 -.009975 0 870706109730183e-32 1 0 -1 870706
109730183e-32 .002023686027918555 16 335 257 0 ?337 338 332 333 0 0 1 31 336 282
 0 338 333 339 0 +0 -102090291365864e-33 -.010125 0 870706109730183e-32 1 0 -1 8
70706109730183e-32 .002023686027918555 16 338 256 0 ?340 341 335 336 0 0 1 31 33
9 281 0 341 336 342 0 +0 -104484733167622e-33 -.0104 0 870706109730183e-32 1 0 -
1 870706109730183e-32 .0025 16 341 255 0 ?343 344 338 339 0 0 1 31 342 280 0 344
 339 345 0 +0 -983897903995106e-34 -.0097 0 870706109730183e-32 1 0 -1 870706109
730183e-32 .0025 16 344 254 0 ?346 347 341 342 0 0 1 31 345 230 0 347 342 348 0
 +0 -1007842322012686e-34 -.010775 0 870706109730183e-32 1 0 -1 870706109730183e
-32 .002023686027918555 16 347 204 0 ?349 350 344 345 0 0 1 31 348 229 0 350 345
 351 0 +0 -102090291365864e-33 -.010925 0 870706109730183e-32 1 0 -1 87070610973
0183e-32 .002023686027918555 16 350 203 0 ?352 353 347 348 0 0 1 31 351 228 0 35
3 348 354 0 +0 -104484733167622e-33 -.0112 0 870706109730183e-32 1 0 -1 87070610
9730183e-32 .0025 16 353 202 0 ?355 356 350 351 0 0 1 31 354 227 0 356 351 357 0
 +0 -983897903995106e-34 -.0105 0 870706109730183e-32 1 0 -1 870706109730183e-32
 .0025 16 356 201 0 ?358 359 353 354 0 0 1 31 357 172 0 359 354 360 0 +0 -100784
2322012686e-34 -.011575 0 870706109730183e-32 1 0 -1 870706109730183e-32 .002023
686027918555 16 359 146 0 ?361 362 356 357 0 0 1 31 360 171 0 362 357 363 0 +0 -
102090291365864e-33 -.011725 0 870706109730183e-32 1 0 -1 870706109730183e-32 .0
02023686027918555 16 362 145 0 ?364 21 359 360 0 0 1 31 363 169 0 21 360 17 0 +0
 -983897903995106e-34 -.0113 0 870706109730183e-32 1 0 -1 870706109730183e-32 .0
025 16 21 143 0 ?365 9 362 363 0 0 1 31 17 122 0 9 363 6 0 +0 0 0 0 0 1 1 0 0 .0
02 17 365 0 366 365 365 0 367 21 0 0 +15 366 136 0 365 14 0 17 367 0 368 367 367
 0 365 21 0 0 -15 368 149 0 367 369 370 14 255 369 147 371 ?372 14 368 4 373 -0
 0 372 14 19 15 370 150 0 361 369 0 17 361 0 370 361 361 0 374 359 0 0 +17 374 0
 375 374 374 0 361 359 0 0 -15 375 161 0 374 376 377 14 376 159 378 ?379 372 375
 4 380 -0 0 379 372 19 15 377 162 0 364 376 0 17 364 0 377 364 364 0 381 362 0 0
 +17 381 0 382 381 381 0 364 362 0 0 -15 382 157 0 381 372 383 14 372 155 384 ?3
76 369 382 4 385 -0 0 376 369 19 15 383 158 0 386 372 0 17 386 0 383 386 386 0 1
93 191 0 0 -17 193 0 387 193 193 0 386 191 0 0 +15 387 1082 0 193 388 0 14 388 1
079 389 ?390 391 392 4 393 -0 0 390 391 19 81 255 1 389 1699 394 388 395 0 384 3
96 397 14 390 1136 396 ?398 388 399 4 400 +0 0 398 388 19 14 391 112 401 ?388 40
2 403 4 404 -0 0 388 402 19 15 392 1081 0 405 388 387 50 255 393 1097 0 388 400
 406 0 +0 32919613582658e-32 -.012 0 851179555526357e-32 -1 0 1 851179555526357e
-32 13 19 32 0 0 0 0 0 0 8 12 14 12 1209 407 ?408 0 409 4 406 -0 0 408 0 19 81 1
 407 1702 394 12 410 0 401 411 412 14 408 1121 411 ?14 12 413 4 414 -0 0 14 12 1
9 15 409 1112 0 187 12 415 50 406 1096 0 12 393 414 0 +0 3572850611589495e-34 -.
0153 0 -851179555526357e-32 1 0 -1 -851179555526357e-32 51 414 1095 0 408 406 41
6 0 -0 3572850611589495e-34 -.0153 0 851179555526357e-32 -1 .00425 0 1 851179555
526357e-32 54 255 416 925 0 417 414 418 0 +0 0 -45e-5 0 870706109730183e-32 1 .0
0206698729810778 866025403784462e-19 0 -1 870706109730183e-32 14 417 916 419 ?40
2 420 421 4 416 -0 0 402 420 19 52 255 418 924 0 420 416 422 0 -0 -1044847331676
22e-33 -8e-4 0 -870706109730183e-32 -1 .0025 .866025403784439 .5 0 1 -8707061097
30183e-32 14 420 912 423 ?417 424 425 4 418 -0 0 417 424 19 52 422 922 0 424 418
 426 0 -0 -1007842322012686e-34 -.000374999999999995 0 870706109730183e-32 1 .00
2023686027918555 .866025403784439 .5 0 -1 870706109730183e-32 14 424 896 427 ?42
0 428 429 4 422 -0 0 420 428 19 54 426 862 0 430 422 431 0 +0 0 -.00125 0 870706
109730183e-32 1 .00206698729810778 866025403784462e-19 0 -1 870706109730183e-32
 14 430 853 432 ?428 433 434 4 426 -0 0 428 433 19 52 431 861 0 433 426 435 0 -0
 -104484733167622e-33 -.0016 0 -870706109730183e-32 -1 .0025 .866025403784439 .5
 0 1 -870706109730183e-32 14 433 849 436 ?430 437 438 4 431 -0 0 430 437 19 52 4
35 859 0 437 431 439 0 -0 -1007842322012686e-34 -.001175 0 870706109730183e-32 1
 .002023686027918555 .866025403784439 .5 0 -1 870706109730183e-32 14 437 841 440
 ?433 441 442 4 435 -0 0 433 441 19 54 439 809 0 443 435 444 0 +0 0 -.00205 0 87
0706109730183e-32 1 .00206698729810778 866025403784462e-19 0 -1 870706109730183e
-32 14 443 800 445 ?441 446 447 4 439 -0 0 441 446 19 52 444 808 0 446 439 448 0
 -0 -104484733167622e-33 -.0024 0 -870706109730183e-32 -1 .0025 .866025403784439
 .5 0 1 -870706109730183e-32 14 446 796 449 ?443 450 451 4 444 -0 0 443 450 19 5
2 448 806 0 450 444 452 0 -0 -1007842322012686e-34 -.001975 0 870706109730183e-3
2 1 .002023686027918555 .866025403784439 .5 0 -1 870706109730183e-32 14 450 788
 453 ?446 454 455 4 448 -0 0 446 454 19 54 452 756 0 456 448 457 0 +0 0 -.00285
 0 870706109730183e-32 1 .00206698729810778 866025403784462e-19 0 -1 87070610973
0183e-32 14 456 747 458 ?454 459 460 4 452 -0 0 454 459 19 52 457 755 0 459 452
 461 0 -0 -104484733167622e-33 -.0032 0 -870706109730183e-32 -1 .0025 .866025403
784439 .5 0 1 -870706109730183e-32 14 459 743 462 ?456 463 464 4 457 -0 0 456 46
3 19 52 461 753 0 463 457 465 0 -0 -1007842322012686e-34 -.002775 0 870706109730
183e-32 1 .002023686027918555 .866025403784439 .5 0 -1 870706109730183e-32 14 46
3 735 466 ?459 467 468 4 461 -0 0 459 467 19 54 465 703 0 469 461 470 0 +0 0 -.0
0365 0 870706109730183e-32 1 .00206698729810778 866025403784462e-19 0 -1 8707061
09730183e-32 14 469 694 471 ?467 472 473 4 465 -0 0 467 472 19 52 470 702 0 472
 465 474 0 -0 -104484733167622e-33 -.004 0 -870706109730183e-32 -1 .0025 .866025
403784439 .5 0 1 -870706109730183e-32 14 472 690 475 ?469 476 477 4 470 -0 0 469
 476 19 52 474 700 0 476 470 478 0 -0 -1007842322012686e-34 -.003575 0 870706109
730183e-32 1 .002023686027918555 .866025403784439 .5 0 -1 870706109730183e-32 14
 476 682 479 ?472 480 481 4 474 -0 0 472 480 19 54 478 650 0 482 474 483 0 +0 0
 -.00445 0 870706109730183e-32 1 .00206698729810778 866025403784462e-19 0 -1 870
706109730183e-32 14 482 641 484 ?480 485 486 4 478 -0 0 480 485 19 52 483 649 0
 485 478 487 0 -0 -104484733167622e-33 -.0048 0 -870706109730183e-32 -1 .0025 .8
66025403784439 .5 0 1 -870706109730183e-32 14 485 637 488 ?482 489 490 4 483 -0
 0 482 489 19 52 487 647 0 489 483 491 0 -0 -1007842322012686e-34 -.004375 0 870
706109730183e-32 1 .002023686027918555 .866025403784439 .5 0 -1 870706109730183e
-32 14 489 629 492 ?485 493 494 4 487 -0 0 485 493 19 54 491 597 0 495 487 496 0
 +0 0 -.00525 0 870706109730183e-32 1 .00206698729810778 866025403784462e-19 0 -
1 870706109730183e-32 14 495 588 497 ?493 498 499 4 491 -0 0 493 498 19 52 496 5
96 0 498 491 500 0 -0 -104484733167622e-33 -.0056 0 -870706109730183e-32 -1 .002
5 .866025403784439 .5 0 1 -870706109730183e-32 14 498 584 501 ?495 502 503 4 496
 -0 0 495 502 19 52 500 594 0 502 496 504 0 -0 -1007842322012686e-34 -.005175 0
 870706109730183e-32 1 .002023686027918555 .866025403784439 .5 0 -1 870706109730
183e-32 14 502 576 505 ?498 506 507 4 500 -0 0 498 506 19 54 504 544 0 508 500 5
09 0 +0 0 -.00605 0 870706109730183e-32 1 .00206698729810778 866025403784462e-19
 0 -1 870706109730183e-32 14 508 535 510 ?506 511 512 4 504 -0 0 506 511 19 52 5
09 543 0 511 504 513 0 -0 -104484733167622e-33 -.0064 0 -870706109730183e-32 -1
 .0025 .866025403784439 .5 0 1 -870706109730183e-32 14 511 531 514 ?508 515 516
 4 509 -0 0 508 515 19 52 513 541 0 515 509 517 0 -0 -1007842322012686e-34 -.005
975 0 870706109730183e-32 1 .002023686027918555 .866025403784439 .5 0 -1 8707061
09730183e-32 14 515 523 518 ?511 519 520 4 513 -0 0 511 519 19 54 517 491 0 521
 513 522 0 +0 0 -.00685 0 870706109730183e-32 1 .00206698729810778 8660254037844
62e-19 0 -1 870706109730183e-32 14 521 482 523 ?519 524 525 4 517 -0 0 519 524 1
9 52 522 490 0 524 517 526 0 -0 -104484733167622e-33 -.0072 0 -870706109730183e-
32 -1 .0025 .866025403784439 .5 0 1 -870706109730183e-32 14 524 478 527 ?521 528
 529 4 522 -0 0 521 528 19 52 526 488 0 528 522 530 0 -0 -1007842322012686e-34 -
.006775 0 870706109730183e-32 1 .002023686027918555 .866025403784439 .5 0 -1 870
706109730183e-32 14 528 470 531 ?524 532 533 4 526 -0 0 524 532 19 54 530 438 0
 534 526 535 0 +0 0 -.00765 0 870706109730183e-32 1 .00206698729810778 866025403
784462e-19 0 -1 870706109730183e-32 14 534 429 536 ?532 537 538 4 530 -0 0 532 5
37 19 52 535 437 0 537 530 539 0 -0 -104484733167622e-33 -.008 0 -87070610973018
3e-32 -1 .0025 .866025403784439 .5 0 1 -870706109730183e-32 14 537 425 540 ?534
 541 542 4 535 -0 0 534 541 19 52 539 435 0 541 535 543 0 -0 -1007842322012686e-
34 -.007575 0 870706109730183e-32 1 .002023686027918555 .866025403784439 .5 0 -1
 870706109730183e-32 14 541 417 544 ?537 545 546 4 539 -0 0 537 545 19 54 543 38
5 0 547 539 548 0 +0 0 -.00845 0 870706109730183e-32 1 .00206698729810778 866025
403784462e-19 0 -1 870706109730183e-32 14 547 376 549 ?545 550 551 4 543 -0 0 54
5 550 19 52 548 384 0 550 543 552 0 -0 -104484733167622e-33 -.0088 0 -8707061097
30183e-32 -1 .0025 .866025403784439 .5 0 1 -870706109730183e-32 14 550 372 553 ?
547 554 555 4 548 -0 0 547 554 19 52 552 382 0 554 548 556 0 -0 -100784232201268
6e-34 -.008375 0 870706109730183e-32 1 .002023686027918555 .866025403784439 .5 0
 -1 870706109730183e-32 14 554 364 557 ?550 558 559 4 552 -0 0 550 558 19 54 556
 332 0 560 552 561 0 +0 0 -.00925 0 870706109730183e-32 1 .00206698729810778 866
025403784462e-19 0 -1 870706109730183e-32 14 560 323 562 ?558 563 564 4 556 -0 0
 558 563 19 52 561 331 0 563 556 565 0 -0 -104484733167622e-33 -.0096 0 -8707061
09730183e-32 -1 .0025 .866025403784439 .5 0 1 -870706109730183e-32 14 563 319 56
6 ?560 567 568 4 561 -0 0 560 567 19 52 565 329 0 567 561 569 0 -0 -100784232201
2686e-34 -.009175 0 870706109730183e-32 1 .002023686027918555 .866025403784439 .
5 0 -1 870706109730183e-32 14 567 311 570 ?563 571 572 4 565 -0 0 563 571 19 54
 569 279 0 573 565 574 0 +0 0 -.01005 0 870706109730183e-32 1 .00206698729810778
 866025403784462e-19 0 -1 870706109730183e-32 14 573 270 575 ?571 576 577 4 569
 -0 0 571 576 19 52 574 278 0 576 569 578 0 -0 -104484733167622e-33 -.0104 0 -87
0706109730183e-32 -1 .0025 .866025403784439 .5 0 1 -870706109730183e-32 14 576 2
66 579 ?573 580 581 4 574 -0 0 573 580 19 52 578 276 0 580 574 582 0 -0 -1007842
322012686e-34 -.009975 0 870706109730183e-32 1 .002023686027918555 .866025403784
439 .5 0 -1 870706109730183e-32 14 580 258 583 ?576 584 585 4 578 -0 0 576 584 1
9 54 582 226 0 586 578 587 0 +0 0 -.01085 0 870706109730183e-32 1 .0020669872981
0778 866025403784462e-19 0 -1 870706109730183e-32 14 586 217 588 ?584 589 590 4
 582 -0 0 584 589 19 52 587 225 0 589 582 591 0 -0 -104484733167622e-33 -.0112 0
 -870706109730183e-32 -1 .0025 .866025403784439 .5 0 1 -870706109730183e-32 14 5
89 213 592 ?586 379 593 4 587 -0 0 586 379 19 52 591 223 0 379 587 380 0 -0 -100
7842322012686e-34 -.010775 0 870706109730183e-32 1 .002023686027918555 .86602540
3784439 .5 0 -1 870706109730183e-32 14 379 205 594 ?589 376 595 4 591 -0 0 589 3
76 19 54 380 168 0 376 591 385 0 +0 0 -.01165 0 870706109730183e-32 1 .002066987
29810778 866025403784462e-19 0 -1 870706109730183e-32 52 385 167 0 372 380 373 0
 -0 -104484733167622e-33 -.012 0 -870706109730183e-32 -1 .0025 .866025403784439
 .5 0 1 -870706109730183e-32 52 373 165 0 369 385 404 0 -0 -1007842322012686e-34
 -.011575 0 870706109730183e-32 1 .002023686027918555 .866025403784439 .5 0 -1 8
70706109730183e-32 52 404 120 0 391 373 15 0 -0 0 -5e-4 0 0 -1 .0025 .7071067811
86544 .707106781186552 -1 0 0 50 15 56 0 402 404 5 0 +0 .0025 -216840434497101e-
33 0 0 -1 -1 0 0 14 402 40 596 ?391 417 597 4 15 -0 0 391 417 19 81 1 596 1746 3
94 402 598 0 594 599 600 15 597 88 0 20 402 0 17 20 0 597 20 20 0 601 9 0 0 +17
 601 0 602 601 601 0 20 9 0 0 -15 602 114 0 601 391 0 80 255 1 394 603 604 9000
 1 1 1 1 1 1 1 1 0 FFFFTFTFFFFFFF1 81 1 598 1519 605 402 0 596 606 607 608 81 1
 594 1745 394 379 609 0 592 596 610 81 1 599 1747 394 398 611 0 596 612 613 82 2
55 1 600 1424556204 14 398 1296 599 ?614 390 24 4 615 +0 0 614 390 19 81 1 611 1
523 605 398 0 599 616 617 618 81 1 612 1748 394 614 617 0 599 619 620 82 1 613 2
039414970 14 614 1300 612 ?621 398 622 4 623 +0 0 621 398 19 81 1 617 1524 605 6
14 0 612 611 624 625 81 1 619 1749 394 621 624 0 612 626 627 82 1 620 2038956218
 14 621 1304 619 ?628 614 629 4 630 +0 0 628 614 19 81 1 624 1525 605 621 0 619
 617 631 632 81 1 626 1750 394 628 631 0 619 633 634 82 1 627 2038169786 14 628
 1308 626 ?635 621 636 4 637 +0 0 635 621 19 81 1 631 1526 605 628 0 626 624 638
 639 81 1 633 1751 394 635 638 0 626 640 641 82 1 634 2037383354 14 635 1312 633
 ?642 628 643 4 644 +0 0 642 628 19 81 1 638 1527 605 635 0 633 631 645 646 81 1
 640 1752 394 642 645 0 633 647 648 82 1 641 2036596922 14 642 1316 640 ?649 635
 650 4 651 +0 0 649 635 19 81 1 645 1528 605 642 0 640 638 652 653 81 1 647 1753
 394 649 652 0 640 654 655 82 1 648 2035810490 14 649 1320 647 ?656 642 657 4 65
8 +0 0 656 642 19 81 1 652 1529 605 649 0 647 645 659 660 81 1 654 1754 394 656
 659 0 647 661 662 82 1 655 2035024058 14 656 1324 654 ?663 649 664 4 665 +0 0 6
63 649 19 81 1 659 1530 605 656 0 654 652 666 667 81 1 661 1755 394 663 666 0 65
4 668 669 82 1 662 2034237626 14 663 1328 661 ?670 656 671 4 672 +0 0 670 656 19
 81 1 666 1531 605 663 0 661 659 673 674 81 1 668 1756 394 670 673 0 661 675 676
 82 1 669 2033451194 14 670 1332 668 ?119 663 677 4 678 +0 0 119 663 19 81 1 673
 1532 605 670 0 668 666 679 680 81 1 675 1757 394 119 679 0 668 681 682 82 1 676
 2032664762 14 119 1336 675 ?103 670 108 4 683 +0 0 103 670 19 81 1 679 1533 605
 119 0 675 673 684 685 81 1 681 1758 394 103 684 0 675 686 687 82 1 682 20318783
30 14 103 1340 681 ?114 119 98 4 688 +0 0 114 119 19 81 1 684 1534 605 103 0 681
 679 689 690 81 1 686 1759 394 114 689 0 681 691 692 82 1 687 2026242234 14 114
 1347 686 ?0 103 113 4 693 -0 0 0 103 19 81 1 689 1535 605 114 0 686 684 0 694 8
1 1 691 1760 394 14 695 0 686 696 697 82 1 692 2031222970 14 14 53 691 ?369 408
 698 4 5 -428 584 369 408 19 81 1 695 1460 605 14 0 691 699 700 701 81 1 696 176
1 394 584 702 0 691 703 704 82 1 697 1426063536 14 584 191 696 ?580 586 705 4 5
 -14 571 580 586 19 81 1 702 1467 605 584 0 696 706 707 708 81 1 703 1762 394 57
1 709 0 696 710 711 82 1 704 1519386800 14 571 244 703 ?567 573 712 4 5 -584 558
 567 573 19 81 1 709 1471 605 571 0 703 713 714 715 81 1 710 1763 394 558 716 0
 703 717 718 82 1 711 1540948144 14 558 297 710 ?554 560 719 4 5 -571 545 554 56
0 19 81 1 716 1475 605 558 0 710 720 721 722 81 1 717 1764 394 545 723 0 710 724
 725 82 1 718 1562443952 14 545 350 717 ?541 547 726 4 5 -558 532 541 547 19 81
 1 723 1479 605 545 0 717 727 728 729 81 1 724 1765 394 532 730 0 717 731 732 82
 1 725 1583939760 14 532 403 724 ?528 534 733 4 5 -545 519 528 534 19 81 1 730 1
483 605 532 0 724 734 735 736 81 1 731 1766 394 519 737 0 724 738 739 82 1 732 1
605435568 14 519 456 731 ?515 521 740 4 5 -532 506 515 521 19 81 1 737 1487 605
 519 0 731 741 742 743 81 1 738 1767 394 506 744 0 731 745 746 82 1 739 16269313
76 14 506 509 738 ?502 508 747 4 5 -519 493 502 508 19 81 1 744 1491 605 506 0 7
38 748 749 750 81 1 745 1768 394 493 751 0 738 752 753 82 1 746 1648427184 14 49
3 562 745 ?489 495 754 4 5 -506 480 489 495 19 81 1 751 1495 605 493 0 745 755 7
56 757 81 1 752 1769 394 480 758 0 745 759 760 82 1 753 1669922992 14 480 615 75
2 ?476 482 761 4 5 -493 467 476 482 19 81 1 758 1499 605 480 0 752 762 763 764 8
1 1 759 1770 394 467 765 0 752 766 767 82 1 760 1691418800 14 467 668 759 ?463 4
69 768 4 5 -480 454 463 469 19 81 1 765 1503 605 467 0 759 769 770 771 81 1 766
 1771 394 454 772 0 759 773 774 82 1 767 1712914608 14 454 721 766 ?450 456 775
 4 5 -467 441 450 456 19 81 1 772 1507 605 454 0 766 776 777 778 81 1 773 1772 3
94 441 779 0 766 780 781 82 1 774 1734410416 14 441 774 773 ?437 443 782 4 5 -45
4 428 437 443 19 81 1 779 1511 605 441 0 773 783 784 785 81 1 780 1773 394 428 7
86 0 773 0 787 82 1 781 1755906224 14 428 827 780 ?424 430 788 4 5 -441 14 424 4
30 19 81 1 786 1515 605 428 0 780 789 790 791 82 1 787 1777402032 80 1 605 0 792
 8001 0 0 0 0 3 5 0 0 0 FFFFTFTFFFFFFF2 81 1 789 1514 605 430 0 432 793 786 794
 81 1 790 1516 605 424 0 427 786 795 796 83 255 3 791 .752941176470588 .75294117
6470588 .752941176470588 81 1 427 1706 394 424 790 0 423 432 797 81 1 795 1517 6
05 420 0 423 790 606 798 83 3 796 .752941176470588 .752941176470588 .75294117647
0588 81 1 423 1705 394 420 795 0 419 427 799 81 1 606 1518 605 417 0 419 795 598
 800 83 3 798 .752941176470588 .752941176470588 .752941176470588 81 1 419 1704 3
94 417 606 0 411 423 801 83 3 800 .752941176470588 .752941176470588 .75294117647
0588 81 1 411 1703 394 408 699 0 407 419 802 82 1 801 1794244784 81 1 699 1459 6
05 408 0 411 410 695 803 82 1 802 1927610552 81 1 410 1458 605 12 0 407 0 699 80
4 83 3 803 .752941176470588 .752941176470588 .752941176470588 83 3 804 .75294117
6470588 .752941176470588 .752941176470588 82 1 799 1794834608 81 1 432 1707 394
 430 789 0 427 436 805 82 1 797 1800405168 81 1 436 1708 394 433 793 0 432 440 8
06 82 1 805 1772748976 81 1 793 1513 605 433 0 436 784 789 807 81 1 440 1709 394
 437 784 0 436 445 808 82 1 806 1773338800 81 1 784 1512 605 437 0 440 779 793 8
09 81 1 445 1710 394 443 783 0 440 449 810 82 1 808 1774256304 81 1 783 1510 605
 443 0 445 811 779 812 81 1 449 1711 394 446 811 0 445 453 813 82 1 810 17512531
68 81 1 811 1509 605 446 0 449 777 783 814 81 1 453 1712 394 450 777 0 449 458 8
15 82 1 813 1751842992 81 1 777 1508 605 450 0 453 772 811 816 81 1 458 1713 394
 456 776 0 453 462 817 82 1 815 1752760496 81 1 776 1506 605 456 0 458 818 772 8
19 81 1 462 1714 394 459 818 0 458 466 820 82 1 817 1729757360 81 1 818 1505 605
 459 0 462 770 776 821 81 1 466 1715 394 463 770 0 462 471 822 82 1 820 17303471
84 81 1 770 1504 605 463 0 466 765 818 823 81 1 471 1716 394 469 769 0 466 475 8
24 82 1 822 1731264688 81 1 769 1502 605 469 0 471 825 765 826 81 1 475 1717 394
 472 825 0 471 479 827 82 1 824 1708261552 81 1 825 1501 605 472 0 475 763 769 8
28 81 1 479 1718 394 476 763 0 475 484 829 82 1 827 1708851376 81 1 763 1500 605
 476 0 479 758 825 830 81 1 484 1719 394 482 762 0 479 488 831 82 1 829 17097688
80 81 1 762 1498 605 482 0 484 832 758 833 81 1 488 1720 394 485 832 0 484 492 8
34 82 1 831 1686765744 81 1 832 1497 605 485 0 488 756 762 835 81 1 492 1721 394
 489 756 0 488 497 836 82 1 834 1687355568 81 1 756 1496 605 489 0 492 751 832 8
37 81 1 497 1722 394 495 755 0 492 501 838 82 1 836 1688273072 81 1 755 1494 605
 495 0 497 839 751 840 81 1 501 1723 394 498 839 0 497 505 841 82 1 838 16652699
36 81 1 839 1493 605 498 0 501 749 755 842 81 1 505 1724 394 502 749 0 501 510 8
43 82 1 841 1665859760 81 1 749 1492 605 502 0 505 744 839 844 81 1 510 1725 394
 508 748 0 505 514 845 82 1 843 1666777264 81 1 748 1490 605 508 0 510 846 744 8
47 81 1 514 1726 394 511 846 0 510 518 848 82 1 845 1643774128 81 1 846 1489 605
 511 0 514 742 748 849 81 1 518 1727 394 515 742 0 514 523 850 82 1 848 16443639
52 81 1 742 1488 605 515 0 518 737 846 851 81 1 523 1728 394 521 741 0 518 527 8
52 82 1 850 1645281456 81 1 741 1486 605 521 0 523 853 737 854 81 1 527 1729 394
 524 853 0 523 531 855 82 1 852 1622278320 81 1 853 1485 605 524 0 527 735 741 8
56 81 1 531 1730 394 528 735 0 527 536 857 82 1 855 1622868144 81 1 735 1484 605
 528 0 531 730 853 858 81 1 536 1731 394 534 734 0 531 540 859 82 1 857 16237856
48 81 1 734 1482 605 534 0 536 860 730 861 81 1 540 1732 394 537 860 0 536 544 8
62 82 1 859 1600782512 81 1 860 1481 605 537 0 540 728 734 863 81 1 544 1733 394
 541 728 0 540 549 864 82 1 862 1601372336 81 1 728 1480 605 541 0 544 723 860 8
65 81 1 549 1734 394 547 727 0 544 553 866 82 1 864 1602289840 81 1 727 1478 605
 547 0 549 867 723 868 81 1 553 1735 394 550 867 0 549 557 869 82 1 866 15792867
04 81 1 867 1477 605 550 0 553 721 727 870 81 1 557 1736 394 554 721 0 553 562 8
71 82 1 869 1579876528 81 1 721 1476 605 554 0 557 716 867 872 81 1 562 1737 394
 560 720 0 557 566 873 82 1 871 1580794032 81 1 720 1474 605 560 0 562 874 716 8
75 81 1 566 1738 394 563 874 0 562 570 876 82 1 873 1557790896 81 1 874 1473 605
 563 0 566 714 720 877 81 1 570 1739 394 567 714 0 566 575 878 82 1 876 15583807
20 81 1 714 1472 605 567 0 570 709 874 879 81 1 575 1740 394 573 713 0 570 579 8
80 82 1 878 1559298224 81 1 713 1470 605 573 0 575 881 709 882 81 1 579 1741 394
 576 881 0 575 583 883 82 1 880 1536295088 81 1 881 1469 605 576 0 579 707 713 8
84 81 1 583 1742 394 580 707 0 579 588 885 82 1 883 1536884912 81 1 707 1468 605
 580 0 583 702 881 886 81 1 588 1743 394 586 706 0 583 592 887 82 1 885 15378024
16 81 1 706 1466 605 586 0 588 888 702 889 81 1 592 1744 394 589 888 0 588 594 8
90 82 1 887 1514733744 81 1 888 1465 605 589 0 592 609 706 891 82 1 890 15153235
68 81 1 609 1464 605 379 0 594 892 888 893 83 3 891 .752941176470588 .7529411764
70588 .752941176470588 81 1 892 1463 605 376 0 378 894 609 895 83 3 893 .7529411
76470588 .752941176470588 .752941176470588 81 1 378 1697 394 376 892 0 371 384 8
96 81 1 894 1462 605 372 0 384 700 892 897 83 3 895 .752941176470588 .7529411764
70588 .752941176470588 81 1 384 1698 394 372 894 0 378 389 898 81 1 700 1461 605
 369 0 371 695 894 899 83 3 897 .752941176470588 .752941176470588 .7529411764705
88 81 1 371 1696 394 369 700 0 0 378 900 83 3 899 .752941176470588 .752941176470
588 .752941176470588 82 1 900 1494745263 82 1 898 1493827759 82 1 896 1493237935
 83 3 889 .752941176470588 .752941176470588 .752941176470588 83 3 886 .752941176
470588 .752941176470588 .752941176470588 83 3 884 .752941176470588 .752941176470
588 .752941176470588 83 3 882 .752941176470588 .752941176470588 .752941176470588
 83 3 879 .752941176470588 .752941176470588 .752941176470588 83 3 877 .752941176
470588 .752941176470588 .752941176470588 83 3 875 .752941176470588 .752941176470
588 .752941176470588 83 3 872 .752941176470588 .752941176470588 .752941176470588
 83 3 870 .752941176470588 .752941176470588 .752941176470588 83 3 868 .752941176
470588 .752941176470588 .752941176470588 83 3 865 .752941176470588 .752941176470
588 .752941176470588 83 3 863 .752941176470588 .752941176470588 .752941176470588
 83 3 861 .752941176470588 .752941176470588 .752941176470588 83 3 858 .752941176
470588 .752941176470588 .752941176470588 83 3 856 .752941176470588 .752941176470
588 .752941176470588 83 3 854 .752941176470588 .752941176470588 .752941176470588
 83 3 851 .752941176470588 .752941176470588 .752941176470588 83 3 849 .752941176
470588 .752941176470588 .752941176470588 83 3 847 .752941176470588 .752941176470
588 .752941176470588 83 3 844 .752941176470588 .752941176470588 .752941176470588
 83 3 842 .752941176470588 .752941176470588 .752941176470588 83 3 840 .752941176
470588 .752941176470588 .752941176470588 83 3 837 .752941176470588 .752941176470
588 .752941176470588 83 3 835 .752941176470588 .752941176470588 .752941176470588
 83 3 833 .752941176470588 .752941176470588 .752941176470588 83 3 830 .752941176
470588 .752941176470588 .752941176470588 83 3 828 .752941176470588 .752941176470
588 .752941176470588 83 3 826 .752941176470588 .752941176470588 .752941176470588
 83 3 823 .752941176470588 .752941176470588 .752941176470588 83 3 821 .752941176
470588 .752941176470588 .752941176470588 83 3 819 .752941176470588 .752941176470
588 .752941176470588 83 3 816 .752941176470588 .752941176470588 .752941176470588
 83 3 814 .752941176470588 .752941176470588 .752941176470588 83 3 812 .752941176
470588 .752941176470588 .752941176470588 83 3 809 .752941176470588 .752941176470
588 .752941176470588 83 3 807 .752941176470588 .752941176470588 .752941176470588
 83 3 794 .752941176470588 .752941176470588 .752941176470588 79 255 15 792 SDL/T
YSA_COLOUR15 788 877 0 901 428 902 17 901 0 788 901 901 0 202 200 0 0 -15 902 83
0 0 214 428 0 17 214 0 902 214 214 0 903 212 0 0 +17 903 0 442 903 903 0 214 212
 0 0 -15 442 843 0 903 437 904 15 904 844 0 205 437 0 17 205 0 904 205 205 0 905
 203 0 0 +17 905 0 434 905 905 0 205 203 0 0 -15 434 855 0 905 430 906 15 906 85
6 0 208 430 0 17 208 0 906 208 208 0 907 206 0 0 +17 907 0 438 907 907 0 208 206
 0 0 -15 438 851 0 907 433 908 15 908 852 0 211 433 0 17 211 0 908 211 211 0 909
 209 0 0 +17 909 0 782 909 909 0 211 209 0 0 -15 782 824 0 909 441 910 15 910 77
7 0 226 441 0 17 226 0 910 226 226 0 911 224 0 0 +17 911 0 455 911 911 0 226 224
 0 0 -15 455 790 0 911 450 912 15 912 791 0 217 450 0 17 217 0 912 217 217 0 913
 215 0 0 +17 913 0 447 913 913 0 217 215 0 0 -15 447 802 0 913 443 914 15 914 80
3 0 220 443 0 17 220 0 914 220 220 0 915 218 0 0 +17 915 0 451 915 915 0 220 218
 0 0 -15 451 798 0 915 446 916 15 916 799 0 223 446 0 17 223 0 916 223 223 0 917
 221 0 0 +17 917 0 775 917 917 0 223 221 0 0 -15 775 771 0 917 454 918 15 918 72
4 0 238 454 0 17 238 0 918 238 238 0 919 236 0 0 +17 919 0 468 919 919 0 238 236
 0 0 -15 468 737 0 919 463 920 15 920 738 0 229 463 0 17 229 0 920 229 229 0 921
 227 0 0 +17 921 0 460 921 921 0 229 227 0 0 -15 460 749 0 921 456 922 15 922 75
0 0 232 456 0 17 232 0 922 232 232 0 923 230 0 0 +17 923 0 464 923 923 0 232 230
 0 0 -15 464 745 0 923 459 924 15 924 746 0 235 459 0 17 235 0 924 235 235 0 925
 233 0 0 +17 925 0 768 925 925 0 235 233 0 0 -15 768 718 0 925 467 926 15 926 67
1 0 250 467 0 17 250 0 926 250 250 0 927 248 0 0 +17 927 0 481 927 927 0 250 248
 0 0 -15 481 684 0 927 476 928 15 928 685 0 241 476 0 17 241 0 928 241 241 0 929
 239 0 0 +17 929 0 473 929 929 0 241 239 0 0 -15 473 696 0 929 469 930 15 930 69
7 0 244 469 0 17 244 0 930 244 244 0 931 242 0 0 +17 931 0 477 931 931 0 244 242
 0 0 -15 477 692 0 931 472 932 15 932 693 0 247 472 0 17 247 0 932 247 247 0 933
 245 0 0 +17 933 0 761 933 933 0 247 245 0 0 -15 761 665 0 933 480 934 15 934 61
8 0 262 480 0 17 262 0 934 262 262 0 935 260 0 0 +17 935 0 494 935 935 0 262 260
 0 0 -15 494 631 0 935 489 936 15 936 632 0 253 489 0 17 253 0 936 253 253 0 937
 251 0 0 +17 937 0 486 937 937 0 253 251 0 0 -15 486 643 0 937 482 938 15 938 64
4 0 256 482 0 17 256 0 938 256 256 0 939 254 0 0 +17 939 0 490 939 939 0 256 254
 0 0 -15 490 639 0 939 485 940 15 940 640 0 259 485 0 17 259 0 940 259 259 0 941
 257 0 0 +17 941 0 754 941 941 0 259 257 0 0 -15 754 612 0 941 493 942 15 942 56
5 0 274 493 0 17 274 0 942 274 274 0 943 272 0 0 +17 943 0 507 943 943 0 274 272
 0 0 -15 507 578 0 943 502 944 15 944 579 0 265 502 0 17 265 0 944 265 265 0 945
 263 0 0 +17 945 0 499 945 945 0 265 263 0 0 -15 499 590 0 945 495 946 15 946 59
1 0 268 495 0 17 268 0 946 268 268 0 947 266 0 0 +17 947 0 503 947 947 0 268 266
 0 0 -15 503 586 0 947 498 948 15 948 587 0 271 498 0 17 271 0 948 271 271 0 949
 269 0 0 +17 949 0 747 949 949 0 271 269 0 0 -15 747 559 0 949 506 950 15 950 51
2 0 286 506 0 17 286 0 950 286 286 0 951 284 0 0 +17 951 0 520 951 951 0 286 284
 0 0 -15 520 525 0 951 515 952 15 952 526 0 277 515 0 17 277 0 952 277 277 0 953
 275 0 0 +17 953 0 512 953 953 0 277 275 0 0 -15 512 537 0 953 508 954 15 954 53
8 0 280 508 0 17 280 0 954 280 280 0 955 278 0 0 +17 955 0 516 955 955 0 280 278
 0 0 -15 516 533 0 955 511 956 15 956 534 0 283 511 0 17 283 0 956 283 283 0 957
 281 0 0 +17 957 0 740 957 957 0 283 281 0 0 -15 740 506 0 957 519 958 15 958 45
9 0 298 519 0 17 298 0 958 298 298 0 959 296 0 0 +17 959 0 533 959 959 0 298 296
 0 0 -15 533 472 0 959 528 960 15 960 473 0 289 528 0 17 289 0 960 289 289 0 961
 287 0 0 +17 961 0 525 961 961 0 289 287 0 0 -15 525 484 0 961 521 962 15 962 48
5 0 292 521 0 17 292 0 962 292 292 0 963 290 0 0 +17 963 0 529 963 963 0 292 290
 0 0 -15 529 480 0 963 524 964 15 964 481 0 295 524 0 17 295 0 964 295 295 0 965
 293 0 0 +17 965 0 733 965 965 0 295 293 0 0 -15 733 453 0 965 532 966 15 966 40
6 0 310 532 0 17 310 0 966 310 310 0 967 308 0 0 +17 967 0 546 967 967 0 310 308
 0 0 -15 546 419 0 967 541 968 15 968 420 0 301 541 0 17 301 0 968 301 301 0 969
 299 0 0 +17 969 0 538 969 969 0 301 299 0 0 -15 538 431 0 969 534 970 15 970 43
2 0 304 534 0 17 304 0 970 304 304 0 971 302 0 0 +17 971 0 542 971 971 0 304 302
 0 0 -15 542 427 0 971 537 972 15 972 428 0 307 537 0 17 307 0 972 307 307 0 973
 305 0 0 +17 973 0 726 973 973 0 307 305 0 0 -15 726 400 0 973 545 974 15 974 35
3 0 322 545 0 17 322 0 974 322 322 0 975 320 0 0 +17 975 0 559 975 975 0 322 320
 0 0 -15 559 366 0 975 554 976 15 976 367 0 313 554 0 17 313 0 976 313 313 0 977
 311 0 0 +17 977 0 551 977 977 0 313 311 0 0 -15 551 378 0 977 547 978 15 978 37
9 0 316 547 0 17 316 0 978 316 316 0 979 314 0 0 +17 979 0 555 979 979 0 316 314
 0 0 -15 555 374 0 979 550 980 15 980 375 0 319 550 0 17 319 0 980 319 319 0 981
 317 0 0 +17 981 0 719 981 981 0 319 317 0 0 -15 719 347 0 981 558 982 15 982 30
0 0 334 558 0 17 334 0 982 334 334 0 983 332 0 0 +17 983 0 572 983 983 0 334 332
 0 0 -15 572 313 0 983 567 984 15 984 314 0 325 567 0 17 325 0 984 325 325 0 985
 323 0 0 +17 985 0 564 985 985 0 325 323 0 0 -15 564 325 0 985 560 986 15 986 32
6 0 328 560 0 17 328 0 986 328 328 0 987 326 0 0 +17 987 0 568 987 987 0 328 326
 0 0 -15 568 321 0 987 563 988 15 988 322 0 331 563 0 17 331 0 988 331 331 0 989
 329 0 0 +17 989 0 712 989 989 0 331 329 0 0 -15 712 294 0 989 571 990 15 990 24
7 0 346 571 0 17 346 0 990 346 346 0 991 344 0 0 +17 991 0 585 991 991 0 346 344
 0 0 -15 585 260 0 991 580 992 15 992 261 0 337 580 0 17 337 0 992 337 337 0 993
 335 0 0 +17 993 0 577 993 993 0 337 335 0 0 -15 577 272 0 993 573 994 15 994 27
3 0 340 573 0 17 340 0 994 340 340 0 995 338 0 0 +17 995 0 581 995 995 0 340 338
 0 0 -15 581 268 0 995 576 996 15 996 269 0 343 576 0 17 343 0 996 343 343 0 997
 341 0 0 +17 997 0 705 997 997 0 343 341 0 0 -15 705 241 0 997 584 998 15 998 19
4 0 358 584 0 17 358 0 998 358 358 0 999 356 0 0 +17 999 0 595 999 999 0 358 356
 0 0 -15 595 207 0 999 379 1000 15 1000 208 0 349 379 0 17 349 0 1000 349 349 0
 1001 347 0 0 +17 1001 0 590 1001 1001 0 349 347 0 0 -15 590 219 0 1001 586 1002
 15 1002 220 0 352 586 0 17 352 0 1002 352 352 0 1003 350 0 0 +17 1003 0 593 100
3 1003 0 352 350 0 0 -15 593 215 0 1003 589 1004 15 1004 216 0 355 589 0 17 355
 0 1004 355 355 0 1005 353 0 0 +17 1005 0 698 1005 1005 0 355 353 0 0 -15 698 18
8 0 1005 14 366 17 202 0 1006 202 202 0 901 200 0 0 +15 1006 915 0 202 420 0 83
 3 785 .752941176470588 .752941176470588 .752941176470588 83 3 778 .752941176470
588 .752941176470588 .752941176470588 83 3 771 .752941176470588 .752941176470588
 .752941176470588 83 3 764 .752941176470588 .752941176470588 .752941176470588 83
 3 757 .752941176470588 .752941176470588 .752941176470588 83 3 750 .752941176470
588 .752941176470588 .752941176470588 83 3 743 .752941176470588 .752941176470588
 .752941176470588 83 3 736 .752941176470588 .752941176470588 .752941176470588 83
 3 729 .752941176470588 .752941176470588 .752941176470588 83 3 722 .752941176470
588 .752941176470588 .752941176470588 83 3 715 .752941176470588 .752941176470588
 .752941176470588 83 3 708 .752941176470588 .752941176470588 .752941176470588 83
 3 701 .752941176470588 .752941176470588 .752941176470588 83 3 694 .752941176470
588 .752941176470588 .752941176470588 50 693 1354 0 114 615 400 0 +0 0 -.0138 0
 0 1 1 0 0 51 615 1355 0 398 623 693 0 +-.00255766169251004 433680868994202e-33
 -.00788730057956202 0 0 -1 .001016056655526972 -1 0 0 54 400 1144 0 390 693 393
 0 +0 433680868994202e-33 -.01404030303030302 0 851179555526357e-32 -1 .0034 .00
1259696969696978 0 1 851179555526357e-32 51 623 1356 0 614 630 615 0 --.00166125
 -.000959123134691266 -.00788730057956202 0 0 -1 .0002967537306174685 -1 0 0 51
 630 1357 0 621 637 623 0 +-.00127883084625502 -.002215 -.00788730057956202 0 0
 -1 .001016056655526972 -1 0 0 51 637 1358 0 628 644 630 0 -1945823214396045e-34
 -.00191824626938253 -.00788730057956202 0 0 -1 .0002967537306174685 -1 0 0 51 6
44 1359 0 635 651 637 0 +.00127883084625502 -.002215 -.00788730057956202 0 0 -1
 .001016056655526972 -1 0 0 51 651 1360 0 642 658 644 0 -.00166125 -.00095912313
4691266 -.00788730057956202 0 0 -1 .0002967537306174685 -1 0 0 51 658 1361 0 649
 665 651 0 +.00255766169251004 1038541316390282e-34 -.00788730057956202 0 0 -1 .
001016056655526972 -1 0 0 51 665 1362 0 656 672 658 0 -.00166125 .00095912313469
1266 -.00788730057956202 0 0 -1 .0002967537306174685 -1 0 0 51 672 1363 0 663 67
8 665 0 +.00127883084625502 .002215 -.00788730057956202 0 0 -1 .0010160566555269
72 -1 0 0 51 678 1364 0 670 683 672 0 -0 .00191824626938253 -.00788730057956202
 0 0 -1 .000296753730617469 -1 0 0 51 683 1365 0 119 688 678 0 +-.00127883084625
502 .002215 -.00788730057956202 0 0 -1 .001016056655526972 -1 0 0 51 688 1366 0
 103 0 683 0 --.00166125 .000959123134691266 -.00788730057956202 0 0 -1 .0002967
53730617468 -1 0 0 83 3 690 .752941176470588 .752941176470588 .752941176470588 8
3 3 685 .752941176470588 .752941176470588 .752941176470588 83 3 680 .75294117647
0588 .752941176470588 .752941176470588 15 677 1335 0 121 670 0 17 121 0 677 75 1
007 73 80 123 0 0 +17 75 0 677 1008 121 74 116 120 0 109 +17 1007 0 677 121 1008
 69 72 181 0 134 -17 80 0 113 82 78 69 121 123 0 1007 -17 82 0 113 84 80 65 134
 128 0 1009 -17 84 0 113 86 82 61 137 135 0 1010 -17 134 0 671 72 1009 69 82 128
 0 0 +17 1009 0 671 134 1011 65 68 178 0 137 -15 671 1331 0 134 663 0 17 1011 0
 671 1009 72 66 1012 180 0 1013 -17 68 0 664 1014 137 66 1009 178 0 1011 +17 137
 0 664 68 1010 65 84 135 0 0 +15 664 1327 0 137 656 0 17 1010 0 664 137 1014 61
 64 175 0 140 -17 1014 0 664 1010 68 62 1013 177 0 1015 -17 64 0 657 1016 140 62
 1010 175 0 1014 +17 140 0 657 64 1017 61 86 138 0 0 +15 657 1323 0 140 649 0 17
 1017 0 657 140 1016 57 60 172 0 143 -17 86 0 113 88 84 57 140 138 0 1017 -17 88
 0 113 90 86 53 143 141 0 1018 -17 90 0 113 92 88 49 146 144 0 1019 -17 143 0 65
0 60 1018 57 88 141 0 0 +17 1018 0 650 143 1020 53 56 169 0 146 -15 650 1319 0 1
43 642 0 17 1020 0 650 1018 60 54 1021 171 0 1022 -17 56 0 643 1023 146 54 1018
 169 0 1020 +17 146 0 643 56 1019 53 90 144 0 0 +15 643 1315 0 146 635 0 17 1019
 0 643 146 1023 49 52 166 0 149 -17 1023 0 643 1019 56 50 1022 168 0 1024 -17 52
 0 636 1025 149 50 1019 166 0 1023 +17 149 0 636 52 1026 49 92 147 0 0 +15 636 1
311 0 149 628 0 17 1026 0 636 149 1025 45 48 163 0 152 -17 92 0 113 94 90 45 149
 147 0 1026 -17 94 0 113 96 92 40 152 150 0 1027 -17 96 0 113 33 94 41 155 153 0
 1028 -17 152 0 629 48 1027 45 94 150 0 0 +17 1027 0 629 152 1029 40 44 160 0 15
5 -15 629 1307 0 152 621 0 17 1029 0 629 1027 48 42 1030 162 0 1031 -17 44 0 622
 1032 155 42 1027 160 0 1029 +17 155 0 622 44 1028 40 96 153 0 0 +15 622 1303 0
 155 614 0 17 1028 0 622 155 1032 41 26 157 0 31 -17 1032 0 622 1028 44 38 1031
 159 0 27 -17 26 0 24 22 31 38 1028 157 0 1032 +17 31 0 24 26 25 41 33 117 0 0 +
15 24 1299 0 31 398 0 17 1031 0 415 1030 27 42 1032 159 0 0 +16 159 1217 0 ?1031
 160 157 131 0 0 1 17 27 0 415 1031 105 38 22 28 0 0 +15 415 1207 0 27 12 0 17 1
05 0 415 27 107 10 100 106 0 0 +16 28 1213 0 ?27 157 32 130 0 0 1 17 107 0 415 1
05 1033 30 109 111 0 0 +16 106 1257 0 ?105 104 101 1034 0 0 1 31 1034 1403 0 106
 0 1035 0 +-.00166125 .000959123134691266 -.0153 0 0 1 1 0 0 .000296753730617468
 31 1035 1402 0 111 1034 1036 0 +-.00127883084625502 .002215 -.0153 0 0 -1 1 0 0
 .001016056655526972 16 111 1253 0 ?107 101 120 1035 0 0 1 31 1036 1401 0 183 10
35 1037 0 +0 .00191824626938253 -.0153 0 0 1 1 0 0 .000296753730617469 16 183 12
49 0 ?1033 120 181 1036 0 0 1 31 1037 1400 0 180 1036 1038 0 +.00127883084625502
 .002215 -.0153 0 0 -1 1 0 0 .001016056655526972 16 180 1245 0 ?1012 181 178 103
7 0 0 1 31 1038 1399 0 177 1037 1039 0 +.00166125 .000959123134691266 -.0153 0 0
 1 1 0 0 .0002967537306174685 16 177 1241 0 ?1013 178 175 1038 0 0 1 31 1039 139
8 0 174 1038 1040 0 +.00255766169251004 1038541316390282e-34 -.0153 0 0 -1 1 0 0
 .001016056655526972 16 174 1237 0 ?1015 175 172 1039 0 0 1 31 1040 1397 0 171 1
039 1041 0 +.00166125 -.000959123134691266 -.0153 0 0 1 1 0 0 .00029675373061746
85 16 171 1233 0 ?1021 172 169 1040 0 0 1 31 1041 1396 0 168 1040 1042 0 +.00127
883084625502 -.002215 -.0153 0 0 -1 1 0 0 .001016056655526972 16 168 1229 0 ?102
2 169 166 1041 0 0 1 31 1042 1395 0 165 1041 1043 0 +1945823214396045e-34 -.0019
1824626938253 -.0153 0 0 1 1 0 0 .0002967537306174685 16 165 1225 0 ?1024 166 16
3 1042 0 0 1 31 1043 1394 0 162 1042 131 0 +-.00127883084625502 -.002215 -.0153
 0 0 -1 1 0 0 .001016056655526972 16 162 1221 0 ?1030 163 160 1043 0 0 1 31 131
 1393 0 159 1043 130 0 +-.00166125 -.000959123134691266 -.0153 0 0 1 1 0 0 .0002
967537306174685 17 1030 0 415 1024 1031 46 1029 162 0 0 +17 1024 0 415 1022 1030
 50 1025 165 0 0 +17 1022 0 415 1021 1024 54 1023 168 0 0 +17 1025 0 636 1026 52
 46 1024 165 0 1030 -17 1021 0 415 1015 1022 58 1020 171 0 0 +17 1015 0 415 1013
 1021 62 1016 174 0 0 +17 1013 0 415 1012 1015 66 1014 177 0 0 +17 1016 0 657 10
17 64 58 1015 174 0 1021 -17 1012 0 415 1033 1013 70 1011 180 0 0 +17 1033 0 415
 107 1012 74 1008 183 0 0 +17 1008 0 677 1007 75 70 1033 183 0 1012 -17 109 0 10
8 116 34 74 107 111 0 1033 -17 48 0 629 1029 152 46 1026 163 0 1025 +17 60 0 650
 1020 143 58 1017 172 0 1016 +17 72 0 671 1011 134 70 1007 181 0 1008 +83 3 674
 .752941176470588 .752941176470588 .752941176470588 83 3 667 .752941176470588 .7
52941176470588 .752941176470588 83 3 660 .752941176470588 .752941176470588 .7529
41176470588 83 3 653 .752941176470588 .752941176470588 .752941176470588 83 3 646
 .752941176470588 .752941176470588 .752941176470588 83 3 639 .752941176470588 .7
52941176470588 .752941176470588 83 3 632 .752941176470588 .752941176470588 .7529
41176470588 83 3 625 .752941176470588 .752941176470588 .752941176470588 81 1 616
 1522 605 390 0 396 395 611 1044 83 3 618 .752941176470588 .752941176470588 .752
941176470588 81 1 396 1700 394 390 616 0 389 401 1045 81 1 395 1521 605 388 0 38
9 607 616 1046 83 3 1044 .752941176470588 .752941176470588 .752941176470588 81 1
 607 1520 605 391 0 401 598 395 1047 83 3 1046 .752941176470588 .752941176470588
 .752941176470588 81 1 401 1701 394 391 607 0 396 407 1048 83 3 1047 .7529411764
70588 .752941176470588 .752941176470588 82 1 1048 1451229360 82 1 1045 192348178
4 82 1 610 1516241072 83 3 608 .752941176470588 .752941176470588 .75294117647058
8 79 14 604 SWEntUnchanged15 429 898 0 196 424 1049 17 196 0 429 196 196 0 1050
 194 0 0 +15 1049 899 0 1051 424 0 17 1051 0 1049 1051 1051 0 1052 16 0 0 -17 10
52 0 403 1052 1052 0 1051 16 0 0 +16 16 890 0 ?1052 203 200 6 0 0 1 15 403 883 0
 1052 391 602 17 1050 0 421 1050 1050 0 196 194 0 0 -15 421 918 0 1050 417 1053
 15 1053 919 0 199 417 0 17 199 0 1053 199 199 0 1054 197 0 0 +17 1054 0 425 105
4 1054 0 199 197 0 0 -15 425 914 0 1054 420 1006 17 187 0 409 187 187 0 1055 126
 0 0 +17 1055 0 1056 1055 1055 0 187 126 0 0 -15 1056 1139 0 1055 390 0 15 413 1
086 0 190 408 1057 17 190 0 413 190 190 0 405 188 0 0 +15 1057 1119 0 1058 408 0
 17 1058 0 1057 1058 1058 0 125 122 0 0 -17 125 0 399 125 125 0 1058 122 0 0 +15
 399 1138 0 125 390 1056 17 405 0 392 405 405 0 190 188 0 0 -82 1 412 2059010234
 82 1 397 1900282038 17 29 0 98 100 99 10 25 32 0 105 +19 13 28 0 1 0 8 4 S0 74
 4 CI16 index_map_offset0 0 1 dCCZ20 11 2 0 0 780 689 0 0 0 0 0 0 0 0 0 0 0 0 0
 0 0 0 0 0 1 0 
